# xmcd CD database file
#
# Track frame offsets:
#	187
#	42942
#	80495
#	148457
#	198347
#	235112
#	263470
#	287552
#	309105
#
# Disc length: 4411 seconds
#
# Revision: 0
# Processed by: cddbd v1.5.1PL0 Copyright (c) Steve Scherf et al.
# Submitted via: CDex 1.60beta1
#
DISCID=75113909
DTITLE=John Coltrane - The Complete Prestige Recprdings
DYEAR=1900
DGENRE=Jazz
TTITLE0=Just You, Just Me
TTITLE1=Tenor Conclave
TTITLE2=How Deep Is The Ocean?
TTITLE3=Bob's Boys
TTITLE4=If I Were A Bell
TTITLE5=Well, You Needn't
TTITLE6='Round About Midnight
TTITLE7=Half Nelson
TTITLE8=You're My Everything
EXTD=
EXTT0=
EXTT1=
EXTT2=
EXTT3=
EXTT4=
EXTT5=
EXTT6=
EXTT7=
EXTT8=
PLAYORDER=
